<svg width="1133" height="565" viewBox="0 0 1133 565" fill="none" xmlns="http://www.w3.org/2000/svg">
<path d="M700.955 0.935547H497.655L431.527 66.6497L635.241 66.6497V270.363L700.955 204.235V0.935547Z" fill="black"/>
<path d="M431.527 215.937V270.363H486.489H485.954L552.107 204.211L552.054 149.878L497.595 149.869L431.527 215.937Z" fill="black"/>
<path d="M152.421 561.679L78.5821 368.815H116.328L192.372 561.679H152.421ZM0.0588379 561.679L76.1024 368.815H113.849L40.0093 561.679H0.0588379ZM35.8765 519.249V485.911H156.83V519.249H35.8765Z" fill="black"/>
<path d="M210.244 561.679V423.919H244.409L246.613 449.267V561.679H210.244ZM301.441 561.679V491.146L337.81 482.88V561.679H301.441ZM301.441 491.146C301.441 481.778 300.339 474.523 298.135 469.38C296.115 464.237 293.176 460.563 289.318 458.359C285.461 455.971 280.961 454.777 275.818 454.777C266.45 454.593 259.195 457.44 254.052 463.318C249.092 469.196 246.613 477.921 246.613 489.493H234.49C234.49 474.798 236.602 462.4 240.827 452.297C245.235 442.011 251.297 434.205 259.011 428.878C266.726 423.368 275.818 420.613 286.288 420.613C303.003 420.613 315.768 425.756 324.585 436.042C333.585 446.144 337.994 461.757 337.81 482.88L301.441 491.146Z" fill="black"/>
<path d="M449.495 561.679L448.117 533.851V491.972C448.117 483.707 447.199 476.727 445.362 471.033C443.525 465.155 440.678 460.747 436.821 457.808C433.147 454.685 428.188 453.124 421.943 453.124C416.432 453.124 411.473 454.318 407.064 456.706C402.656 459.094 398.891 462.951 395.768 468.278L362.706 456.981C365.277 451.103 369.043 445.409 374.002 439.899C378.961 434.205 385.39 429.613 393.288 426.123C401.37 422.449 411.197 420.613 422.769 420.613C436.545 420.613 448.025 423.092 457.209 428.052C466.577 433.011 473.557 440.358 478.149 450.093C482.741 459.645 484.945 471.4 484.761 485.36L483.935 561.679H449.495ZM411.473 564.985C394.942 564.985 382.084 561.312 372.9 553.964C363.9 546.617 359.399 536.239 359.399 522.831C359.399 508.136 364.267 497.115 374.002 489.768C383.921 482.237 397.789 478.472 415.606 478.472H450.597V505.473H428.28C416.34 505.473 408.075 506.942 403.483 509.881C398.891 512.636 396.595 516.585 396.595 521.728C396.595 525.769 398.432 528.984 402.105 531.372C405.779 533.576 410.922 534.678 417.534 534.678C423.412 534.678 428.647 533.3 433.239 530.545C437.831 527.606 441.413 523.933 443.984 519.524C446.739 514.932 448.117 510.248 448.117 505.473H457.76C457.76 524.208 454.087 538.811 446.739 549.28C439.576 559.75 427.82 564.985 411.473 564.985Z" fill="black"/>
<path d="M513.747 561.679V368.815H550.115V536.055L548.187 561.679H513.747ZM591.719 564.985C580.147 564.985 570.32 562.046 562.238 556.168C554.34 550.291 548.279 541.933 544.054 531.096C539.829 520.259 537.717 507.493 537.717 492.799C537.717 477.921 539.829 465.155 544.054 454.502C548.279 443.664 554.34 435.307 562.238 429.429C570.32 423.551 580.147 420.613 591.719 420.613C604.393 420.613 615.322 423.551 624.506 429.429C633.873 435.307 641.129 443.664 646.272 454.502C651.415 465.155 653.986 477.921 653.986 492.799C653.986 507.493 651.415 520.259 646.272 531.096C641.129 541.933 633.873 550.291 624.506 556.168C615.322 562.046 604.393 564.985 591.719 564.985ZM582.351 531.647C588.964 531.647 594.75 529.994 599.709 526.688C604.852 523.382 608.893 518.79 611.832 512.912C614.771 507.034 616.24 500.33 616.24 492.799C616.24 485.268 614.771 478.564 611.832 472.686C609.077 466.808 605.128 462.308 599.985 459.185C595.025 455.879 589.239 454.226 582.627 454.226C576.382 454.226 570.779 455.879 565.82 459.185C560.861 462.492 557.003 467.084 554.248 472.961C551.493 478.655 550.115 485.268 550.115 492.799C550.115 500.33 551.493 507.034 554.248 512.912C557.003 518.79 560.769 523.382 565.545 526.688C570.504 529.994 576.106 531.647 582.351 531.647Z" fill="black"/>
<path d="M760.531 561.679L759.153 533.851V491.972C759.153 483.707 758.235 476.727 756.398 471.033C754.561 465.155 751.714 460.747 747.857 457.808C744.183 454.685 739.224 453.124 732.979 453.124C727.469 453.124 722.509 454.318 718.101 456.706C713.693 459.094 709.927 462.951 706.805 468.278L673.742 456.981C676.314 451.103 680.079 445.409 685.038 439.899C689.998 434.205 696.427 429.613 704.325 426.123C712.407 422.449 722.234 420.613 733.806 420.613C747.582 420.613 759.062 423.092 768.246 428.052C777.613 433.011 784.593 440.358 789.185 450.093C793.777 459.645 795.981 471.4 795.798 485.36L794.971 561.679H760.531ZM722.509 564.985C705.978 564.985 693.12 561.312 683.936 553.964C674.936 546.617 670.436 536.239 670.436 522.831C670.436 508.136 675.303 497.115 685.038 489.768C694.957 482.237 708.825 478.472 726.642 478.472H761.633V505.473H739.316C727.377 505.473 719.111 506.942 714.519 509.881C709.927 512.636 707.631 516.585 707.631 521.728C707.631 525.769 709.468 528.984 713.142 531.372C716.815 533.576 721.958 534.678 728.571 534.678C734.448 534.678 739.683 533.3 744.275 530.545C748.867 527.606 752.449 523.933 755.021 519.524C757.776 514.932 759.153 510.248 759.153 505.473H768.797C768.797 524.208 765.123 538.811 757.776 549.28C750.612 559.75 738.857 564.985 722.509 564.985Z" fill="black"/>
<path d="M876.305 564.985C867.489 564.985 859.223 563.699 851.509 561.128C843.794 558.373 836.998 554.515 831.12 549.556C825.242 544.413 820.65 538.168 817.344 530.821L848.478 516.494C851.233 520.902 854.998 524.759 859.774 528.065C864.55 531.188 870.06 532.749 876.305 532.749C882.367 532.749 887.051 531.923 890.357 530.27C893.663 528.433 895.316 525.861 895.316 522.555C895.316 519.249 893.939 516.861 891.183 515.391C888.612 513.738 885.03 512.361 880.438 511.259L867.764 507.952C854.539 504.463 844.069 498.952 836.355 491.421C828.824 483.707 825.059 474.89 825.059 464.971C825.059 450.828 829.559 439.899 838.559 432.184C847.743 424.47 860.693 420.613 877.407 420.613C886.04 420.613 894.03 421.898 901.378 424.47C908.909 427.041 915.337 430.623 920.664 435.215C925.991 439.807 929.664 445.134 931.685 451.195L901.653 464.971C900.367 461.298 897.245 458.359 892.286 456.155C887.326 453.767 882.367 452.573 877.407 452.573C872.448 452.573 868.591 453.675 865.836 455.879C863.264 457.9 861.978 460.747 861.978 464.42C861.978 466.808 863.264 468.829 865.836 470.482C868.407 471.951 872.081 473.237 876.856 474.339L894.765 478.747C903.766 480.951 910.929 484.533 916.256 489.493C921.766 494.268 925.715 499.687 928.103 505.748C930.675 511.626 931.96 517.412 931.96 523.106C931.96 531.372 929.481 538.719 924.521 545.148C919.746 551.393 913.133 556.26 904.684 559.75C896.418 563.24 886.959 564.985 876.305 564.985Z" fill="black"/>
<path d="M955.33 561.679V423.919H991.699V561.679H955.33ZM973.514 401.602C968.004 401.602 963.137 399.581 958.912 395.54C954.687 391.316 952.575 386.356 952.575 380.662C952.575 374.968 954.687 370.101 958.912 366.06C963.137 361.835 968.004 359.723 973.514 359.723C979.209 359.723 984.076 361.835 988.117 366.06C992.342 370.101 994.454 374.968 994.454 380.662C994.454 386.356 992.342 391.316 988.117 395.54C984.076 399.581 979.209 401.602 973.514 401.602Z" fill="black"/>
<path d="M1076.76 564.985C1067.94 564.985 1059.67 563.699 1051.96 561.128C1044.25 558.373 1037.45 554.515 1031.57 549.556C1025.69 544.413 1021.1 538.168 1017.8 530.821L1048.93 516.494C1051.68 520.902 1055.45 524.759 1060.23 528.065C1065 531.188 1070.51 532.749 1076.76 532.749C1082.82 532.749 1087.5 531.923 1090.81 530.27C1094.11 528.433 1095.77 525.861 1095.77 522.555C1095.77 519.249 1094.39 516.861 1091.64 515.391C1089.06 513.738 1085.48 512.361 1080.89 511.259L1068.22 507.952C1054.99 504.463 1044.52 498.952 1036.81 491.421C1029.28 483.707 1025.51 474.89 1025.51 464.971C1025.51 450.828 1030.01 439.899 1039.01 432.184C1048.19 424.47 1061.14 420.613 1077.86 420.613C1086.49 420.613 1094.48 421.898 1101.83 424.47C1109.36 427.041 1115.79 430.623 1121.12 435.215C1126.44 439.807 1130.12 445.134 1132.14 451.195L1102.1 464.971C1100.82 461.298 1097.7 458.359 1092.74 456.155C1087.78 453.767 1082.82 452.573 1077.86 452.573C1072.9 452.573 1069.04 453.675 1066.29 455.879C1063.72 457.9 1062.43 460.747 1062.43 464.42C1062.43 466.808 1063.72 468.829 1066.29 470.482C1068.86 471.951 1072.53 473.237 1077.31 474.339L1095.22 478.747C1104.22 480.951 1111.38 484.533 1116.71 489.493C1122.22 494.268 1126.17 499.687 1128.55 505.748C1131.13 511.626 1132.41 517.412 1132.41 523.106C1132.41 531.372 1129.93 538.719 1124.97 545.148C1120.2 551.393 1113.58 556.26 1105.14 559.75C1096.87 563.24 1087.41 564.985 1076.76 564.985Z" fill="black"/>
</svg>
